<svg width="258" height="258" viewBox="0 0 258 258" fill="none" xmlns="http://www.w3.org/2000/svg">
<path d="M1 48.6279V1H257V48.6279H254.388H92.4286L89.8163 51.6047V254.188L87.2041 257H48.0204L45.4082 254.188V51.6047L42.7959 48.6279H1Z" fill="black"/>
<path d="M136.837 149.837V105.186L139.449 102.209H254.388L257 105.186V152.814H139.449L136.837 149.837Z" fill="black"/>
<path d="M257 209.372V257H139.449L136.837 254.023V209.372L139.449 206.395H254.388L257 209.372Z" fill="black"/>
<path d="M1 48.6279V1H257V48.6279H254.388H92.4286L89.8163 51.6047V254.188L87.2041 257H48.0204L45.4082 254.188V51.6047L42.7959 48.6279H1Z" stroke="black"/>
<path d="M136.837 149.837V105.186L139.449 102.209H254.388L257 105.186V152.814H139.449L136.837 149.837Z" stroke="black"/>
<path d="M257 209.372V257H139.449L136.837 254.023V209.372L139.449 206.395H254.388L257 209.372Z" stroke="black"/>
</svg>
